<svg width="9" height="8" viewBox="0 0 9 8" fill="none" xmlns="http://www.w3.org/2000/svg">
<path d="M4.8 4.66667V7.33333C4.8 7.51014 4.72775 7.67971 4.59916 7.80474C4.47056 7.92976 4.29615 8 4.11429 8C3.93242 8 3.75801 7.92976 3.62941 7.80474C3.50082 7.67971 3.42857 7.51014 3.42857 7.33333V4.66667H0.685714C0.503852 4.66667 0.329438 4.59643 0.200841 4.4714C0.0722449 4.34638 0 4.17681 0 4C0 3.82319 0.0722449 3.65362 0.200841 3.5286C0.329438 3.40357 0.503852 3.33333 0.685714 3.33333H3.42857V0.666667C3.42857 0.489856 3.50082 0.320287 3.62941 0.195262C3.75801 0.070238 3.93242 0 4.11429 0C4.29615 0 4.47056 0.070238 4.59916 0.195262C4.72775 0.320287 4.8 0.489856 4.8 0.666667V3.33333H7.54286C7.72472 3.33333 7.89913 3.40357 8.02773 3.5286C8.15633 3.65362 8.22857 3.82319 8.22857 4C8.22857 4.17681 8.15633 4.34638 8.02773 4.4714C7.89913 4.59643 7.72472 4.66667 7.54286 4.66667H4.8Z" fill="black"/>
</svg>
